<svg id="Capa_1" enable-background="new 0 0 512 512" height="512" viewBox="0 0 512 512" width="512" xmlns="http://www.w3.org/2000/svg"><g><g><path d="m405.755 60.321c-41.346-35.214-95.537-52.821-149.728-52.821-46.37 0-92.733 12.904-131.056 38.687-13.847 14.134-21.601 24.926-27.655 41.448-26.116 71.27-30.657 240.088-36.535 266.865-7.476 34.055-51.309 142-41.995 142 19.981 0 75.489-41.12 75.489-41.12s2.381 41.12 15.699 41.12c22.432 0 64.776-38.903 64.776-38.903s19.131 38.903 36.963 38.903c17.574 0 45.507-37.13 45.507-37.13s34.564 37.13 55.257 37.13c4.711 0 10.934-3.697 14.083-8.259 7.665-11.985 12.659-26.21 12.659-26.21s55.697 34.469 77.218 27.351c4.323-12.203 5.73-27.351 5.73-27.351 20.408 6.651 55.084 24.595 80.324 24.595-6.637-33.883-38.57-106.388-44.22-132.126-6.916-31.506-11.98-259.655-52.516-294.179z" fill="#f5fcff"/><g fill="#d8e2f3"><path d="m274.278 449.324c-2.99-4.011-8.98-4.035-11.996-.043-10.455 13.836-31.687 40.219-41.569 40.219-12.534 0-24.315-23.946-30.21-38.175-1.996-4.818-8.187-6.167-12.011-2.622-14.74 13.664-45.743 40.797-59.517 40.797-8.47 0-11.46-19.601-12.515-33.874-.442-5.981-7.369-9.046-12.093-5.353-17.99 14.065-52.184 39.226-66.58 39.226-9.314 0 33.519-100.945 40.995-135 5.878-26.777 10.419-195.595 36.535-266.865 6.054-16.522 12.568-30.163 19.655-41.448-6.464 4.349-12.706 9.052-18.673 14.134-40.537 34.525-45.601 262.674-52.518 294.18-7.476 34.055-60.976 150-40.995 150s77.099-42.469 77.099-42.469.092 42.469 15.063 42.469c20.693 0 67.885-42.469 67.885-42.469s15.048 42.469 32.88 42.469c20.693 0 51.194-42.469 51.194-42.469s28.878 42.469 49.571 42.469c7.512 0 14.504-7.536 20.083-16.259-1.585.813-3.285 1.259-5.083 1.259-15.252 0-36.879-26.328-47.2-40.176z"/><path d="m422.168 462.031s57.119 42.469 77.099 42.469c4.879 0 5.369-6.926 3.225-17.874-19.71-7.482-51.551-27.76-67.906-38.577-4.722-3.123-11.063-.094-11.6 5.542-.252 2.641-.53 5.517-.818 8.44z"/><path d="m339.22 462.031s43.341 42.469 64.034 42.469c6.029 0 10.269-6.889 13.184-15.118-16.085-1.903-46.875-27.496-61.775-40.654-4.033-3.561-10.386-1.843-12.076 3.265-1.012 3.053-2.166 6.506-3.367 10.038z"/></g><path d="m361.382 210.63c-78.395 0-105.356-24.386-105.356-24.386s-26.961 24.386-105.356 24.386c15.297 33.919 48.512 57.197 105.356 57.197s90.06-23.278 105.356-57.197z" fill="#e38523"/><path d="m321.566 195.63c-10.354-5.931-21.057-14.033-29.849-25-11.649-14.53-19.982-36.412-25.651-56.276-2.708-9.488-16.139-9.396-18.731.124 0 47.38-40.882 81.152-40.882 81.152l24.308 4c5.681 0 10.851 3.279 13.273 8.417l23.029 36.369 15.926-33.786z" fill="#ffd064"/><path d="m248.033 204.047 19.029 40.369-11.035 23.411-26.961-57.197h-78.395s40.031-7.211 69.666-40c13.106-14.5 21.6-36.321 26.998-56.152 0 32.926-15.236 59.281-24.531 72.296-2.648 3.707.026 8.856 4.582 8.856h7.375c5.68 0 10.85 3.279 13.272 8.417zm51.331-8.417c-5.681 0-10.851 3.279-13.273 8.417l-3.103 6.583h78.395s-19.215-3.198-39.817-15z" fill="#ebb044"/><path d="m132.805 108.505c-11.926 24.654 5.145 47.185 25.841 53.155 13.938 4.021 27.859-.238 39.568-10.904 4.671-5.734 8.344-12.602 10.574-20.33z" fill="#ffd064"/><path d="m158.645 155.66c-20.696-5.971-29.437-23.164-25.841-47.155l-13.379-3.86c-7.987 27.683 5.543 55.896 30.22 63.015 17.787 5.132 36.509-2.1 48.568-16.904-11.539 7.326-25.629 8.925-39.568 4.904z" fill="#ebb044"/><path d="m368.408 156.66c8.596-2.48 17.173-8.746 23.566-18.209 3.548-10.271 4.037-22.083.654-33.806l-75.842 21.88c4.06 25.578 28.838 36.708 51.622 30.135z" fill="#ffd064"/><path d="m370.408 152.66c-22.784 6.573-45.123-3.36-53.622-26.135l-13.52 3.9c7.987 27.683 34.465 44.354 59.142 37.234 14.227-4.104 24.736-15.226 29.566-29.209-5.611 6.686-12.971 11.73-21.566 14.21z" fill="#ebb044"/></g><g><path d="m499.267 512c-17.142 0-52.888-23.534-71.475-36.647-.577 3.073-1.309 6.458-2.225 9.862-4.783 17.773-12.29 26.785-22.313 26.785-10.458 0-24.991-7.475-44.43-22.853-6.465-5.114-12.305-10.19-16.699-14.154-6.388 14.462-19.015 37.007-35.647 37.007-10.912 0-23.359-7.735-38.055-23.646-4.592-4.972-8.616-9.912-11.665-13.858-3.207 3.96-7.454 8.949-12.282 13.969-15.233 15.836-27.912 23.535-38.763 23.535-16.773 0-29.545-22.946-35.919-37.382-15.58 13.17-46.693 37.382-64.846 37.382-10.376 0-17.283-9.225-20.529-27.417-.519-2.908-.905-5.803-1.193-8.501-18.851 13.235-53.611 35.918-70.44 35.918-3.778 0-7.161-1.752-9.282-4.807-3.705-5.337-4.477-14.458 3.793-41.623 5.326-17.495 13.13-38.404 20.677-58.625 8.261-22.135 16.064-43.042 18.481-54.054 1.653-7.53 3.305-28.465 5.397-54.97 8.609-109.077 19.528-217.713 49.583-243.31 41.349-35.216 96.251-54.611 154.591-54.611 4.142 0 7.5 3.358 7.5 7.5s-3.358 7.5-7.5 7.5c-54.78 0-106.228 18.123-144.866 51.031-8.037 6.845-19.751 28.788-29.914 94.448-7.142 46.145-11.361 99.595-14.441 138.623-2.221 28.139-3.825 48.469-5.699 57.006-2.645 12.047-10.261 32.454-19.08 56.082-7.138 19.125-14.52 38.902-19.701 55.541-5.441 17.475-6.484 25.429-6.516 28.915 15.005-3.105 49.767-25.891 69.6-40.634 2.273-1.689 5.305-1.954 7.835-.686 2.532 1.27 4.133 3.856 4.139 6.688 0 .085.044 8.998 1.514 18.23 2.342 14.719 6.028 16.749 6.064 16.763 12.273-.007 44.146-23.716 62.853-40.551 1.862-1.676 4.436-2.311 6.864-1.694 2.427.616 4.386 2.404 5.223 4.764 6.433 18.096 18.34 37.474 25.812 37.474 11.619 0 33.369-23.007 45.102-39.344 1.428-1.989 3.708-3.157 6.188-3.125 2.449.032 4.729 1.257 6.106 3.282 11.079 16.271 31.861 39.187 43.369 39.187 7.376 0 19.446-19.739 25.666-37.454.85-2.419 2.876-4.237 5.374-4.819s5.119.152 6.951 1.946c17.098 16.745 46.64 40.327 58.785 40.327.589 0 4.311-2.7 7.787-15.53 2.677-9.881 3.649-20.034 3.659-20.136.253-2.697 1.941-5.05 4.416-6.152 2.475-1.103 5.352-.786 7.526.83 19.824 14.736 54.562 37.507 69.578 40.629-.034-2.941-.757-9.1-4.235-21.345-3.957-13.931-10.197-31.305-15.191-44.884-1.43-3.888.563-8.198 4.45-9.628 3.889-1.431 8.199.563 9.628 4.45 19.562 53.188 23.853 73.109 17.661 81.983-2.122 3.039-5.499 4.783-9.266 4.783zm-26.115-105.4c-3.046 0-5.91-1.869-7.032-4.892-7.801-21.015-13.061-35.974-15.174-45.6-1.874-8.538-3.479-28.868-5.699-57.007-3.08-39.027-7.299-92.478-14.441-138.623-10.162-65.66-21.876-87.602-29.914-94.447-31.56-26.879-71.586-43.918-115.752-49.275-4.112-.499-7.041-4.236-6.542-8.348s4.241-7.036 8.348-6.542c47.098 5.712 89.863 23.952 123.672 52.746 30.054 25.597 40.974 134.233 49.583 243.31 2.092 26.505 3.744 47.44 5.397 54.971 2.134 9.723 8.648 27.601 14.585 43.595 1.441 3.883-.538 8.2-4.421 9.642-.861.318-1.742.47-2.61.47zm-217.126-131.273c-66.139 0-96.318-30.117-110.077-57.197h-24.185c-4.142 0-7.5-3.358-7.5-7.5s3.358-7.5 7.5-7.5h28.157c4.874-1.04 39.27-9.227 64.851-37.529 10.179-11.262 18.936-29.621 25.325-53.093 2.059-7.561 8.697-12.673 16.52-12.72h.11c7.77 0 14.412 5.014 16.55 12.508 6.768 23.713 15.167 42.262 24.291 53.643 22.567 28.149 59.557 36.222 64.505 37.191h28.215c4.142 0 7.5 3.358 7.5 7.5s-3.358 7.5-7.5 7.5h-24.185c-13.758 27.08-43.937 57.197-110.077 57.197zm31.718-57.197-19.709 41.811c37.476-2.468 65.072-16.753 80.843-41.811zm-124.569 0c15.771 25.058 43.368 39.343 80.843 41.811l-19.709-41.811zm27.854-15h38.036c2.903 0 5.546 1.676 6.784 4.302l20.177 42.805 20.177-42.805c1.238-2.626 3.881-4.302 6.784-4.302h36.548c-11.56-6.406-23.703-15.375-33.67-27.809-10.509-13.109-19.597-32.929-27.012-58.91-.308-1.078-1.022-1.625-2.125-1.625-.007 0-.014 0-.021 0-1.12.007-1.839.565-2.137 1.661-7.105 26.102-16.751 46.024-28.67 59.211-11.078 12.258-23.458 21.125-34.871 27.472zm159.823-26.335c-24.145.002-47.113-17.675-54.792-44.291-.551-1.911-.321-3.963.641-5.705s2.575-3.029 4.486-3.581l89.362-25.78c3.981-1.148 8.137 1.147 9.285 5.127 4.374 15.159 3.2 30.978-3.305 44.541-6.645 13.857-18.025 23.715-32.042 27.759-4.523 1.306-9.102 1.93-13.635 1.93zm9.477-16.341c9.852-2.842 17.905-9.886 22.675-19.833 3.879-8.089 5.229-17.301 3.974-26.541l-36.581 10.553v12.826c0 4.142-3.358 7.5-7.5 7.5s-7.5-3.358-7.5-7.5v-8.499l-22.318 6.438c8.843 19.383 28.731 30.4 47.25 25.056zm-199.128 16.341c-4.535 0-9.11-.624-13.635-1.929-3.979-1.148-6.275-5.305-5.127-9.285 1.148-3.979 5.3-6.274 9.285-5.127 18.519 5.342 38.407-5.674 47.25-25.054l-22.318-6.438v8.499c0 4.142-3.358 7.5-7.5 7.5s-7.5-3.358-7.5-7.5v-12.826l-36.577-10.552c-1.455 10.755.619 21.476 5.996 30.267 2.162 3.533 1.049 8.15-2.484 10.312s-8.15 1.049-10.312-2.484c-8.797-14.381-11.006-32.463-6.059-49.609 1.147-3.979 5.301-6.276 9.285-5.127l89.362 25.78c1.911.551 3.525 1.839 4.486 3.581s1.192 3.793.641 5.705c-7.679 26.61-30.65 44.287-54.793 44.287z"/></g></g></svg>